<svg xmlns="http://www.w3.org/2000/svg" width="33.467" height="33.75" viewBox="0 0 33.467 33.75">
  <defs>
    <style>
      .cls-1 {
        fill: #dadada;
        fill-rule: evenodd;
      }
    </style>
  </defs>
  <path id="facebook.svg" class="cls-1" d="M985.54,46a16.869,16.869,0,1,0,16.73,16.868A16.8,16.8,0,0,0,985.54,46Zm0,29.519a12.652,12.652,0,1,1,12.544-12.651A12.6,12.6,0,0,1,985.54,75.52Zm0.551-6.053-2.647.008-0.008-6.347-1.567-.017v-2.4l1.584-.009,0.048-1.31c0-1.8.617-2.931,2.722-2.931l1.934,0.008,0.009,2.129-1.024.074c-0.82,0-1.119.279-1.119,0.854l0,1.192h2.1l-0.453,2.393h-1.583Z" transform="translate(-968.813 -46)"/>
</svg>
