<svg xmlns="http://www.w3.org/2000/svg" width="33.47" height="33.75" viewBox="0 0 33.47 33.75">
  <defs>
    <style>
      .cls-1 {
        fill: #dadada;
        fill-rule: evenodd;
      }
    </style>
  </defs>
  <path id="rss.svg" class="cls-1" d="M1026.83,46.264a16.869,16.869,0,1,0,16.73,16.868A16.791,16.791,0,0,0,1026.83,46.264Zm0,29.519a12.652,12.652,0,1,1,12.55-12.651A12.593,12.593,0,0,1,1026.83,75.783Zm-4.29-14.675v1.98a4.686,4.686,0,0,1,4.66,4.7h1.97A6.658,6.658,0,0,0,1022.54,61.108Zm0-3.6v1.98a8.273,8.273,0,0,1,8.23,8.3h1.97A10.243,10.243,0,0,0,1022.54,57.509Zm1.21,7.856a1.212,1.212,0,1,0,1.2,1.211A1.21,1.21,0,0,0,1023.75,65.365Z" transform="translate(-1010.09 -46.25)"/>
</svg>
